<svg width="132" height="28" viewBox="0 0 132 28" fill="none" xmlns="http://www.w3.org/2000/svg">
<path d="M23.5727 0.687081C22.817 0.691911 22.0843 0.947723 21.4898 1.41431C20.8952 1.8809 20.4726 2.53182 20.2883 3.26475H16.796C16.5931 2.45825 16.1025 1.7537 15.4164 1.28371C14.7303 0.813728 13.8961 0.610727 13.0708 0.712918C12.2455 0.81511 11.486 1.21545 10.9353 1.83857C10.3845 2.4617 10.0806 3.26464 10.0806 4.09626C10.0806 4.92788 10.3845 5.73082 10.9353 6.35394C11.486 6.97707 12.2455 7.37741 13.0708 7.4796C13.8961 7.58179 14.7303 7.37879 15.4164 6.9088C16.1025 6.43882 16.5931 5.73427 16.796 4.92776H20.2883C20.4443 5.54791 20.7715 6.11169 21.2327 6.5547C21.6938 6.99771 22.2703 7.30209 22.8962 7.43308C23.5221 7.56406 24.1722 7.51637 24.7723 7.29545C25.3724 7.07453 25.8982 6.68929 26.2898 6.18373C26.6814 5.67817 26.9228 5.07267 26.9866 4.4364C27.0505 3.80013 26.934 3.15873 26.6507 2.58548C26.3673 2.01223 25.9284 1.53023 25.3842 1.19454C24.8399 0.85885 24.2122 0.683001 23.5727 0.687081ZM13.5115 5.80085C13.1662 5.80085 12.8286 5.69844 12.5414 5.50656C12.2542 5.31469 12.0304 5.04198 11.8983 4.72291C11.7661 4.40384 11.7315 4.05275 11.7989 3.71402C11.8663 3.3753 12.0326 3.06416 12.2768 2.81996C12.521 2.57575 12.8321 2.40945 13.1709 2.34207C13.5096 2.27469 13.8607 2.30927 14.1797 2.44144C14.4988 2.5736 14.7715 2.79741 14.9634 3.08457C15.1553 3.37172 15.2577 3.70932 15.2577 4.05468C15.2577 4.28399 15.2125 4.51106 15.1248 4.72291C15.037 4.93476 14.9084 5.12726 14.7462 5.28941C14.5841 5.45155 14.3916 5.58017 14.1797 5.66793C13.9679 5.75568 13.7408 5.80085 13.5115 5.80085ZM23.5727 5.80085C23.2274 5.80085 22.8898 5.69844 22.6026 5.50656C22.3155 5.31469 22.0917 5.04198 21.9595 4.72291C21.8273 4.40384 21.7928 4.05275 21.8601 3.71402C21.9275 3.3753 22.0938 3.06416 22.338 2.81996C22.5822 2.57575 22.8934 2.40945 23.2321 2.34207C23.5708 2.27469 23.9219 2.30927 24.241 2.44144C24.56 2.5736 24.8327 2.79741 25.0246 3.08457C25.2165 3.37172 25.3189 3.70932 25.3189 4.05468C25.3189 4.51779 25.1349 4.96194 24.8075 5.28941C24.48 5.61688 24.0358 5.80085 23.5727 5.80085Z" fill="#E21C21"/>
<path d="M3.45068 20.8511C2.77641 20.8511 2.11728 21.051 1.55664 21.4256C0.996009 21.8002 0.559046 22.3327 0.301014 22.9556C0.042981 23.5786 -0.024532 24.264 0.107012 24.9253C0.238556 25.5867 0.563248 26.1941 1.04003 26.6709C1.51681 27.1477 2.12427 27.4724 2.78558 27.6039C3.4469 27.7355 4.13237 27.668 4.75532 27.4099C5.37826 27.1519 5.9107 26.7149 6.28531 26.1543C6.65991 25.5937 6.85986 24.9345 6.85986 24.2603C6.85986 23.3561 6.50068 22.4889 5.86133 21.8496C5.22199 21.2103 4.35485 20.8511 3.45068 20.8511ZM3.45068 25.9648C3.10532 25.9648 2.76772 25.8624 2.48057 25.6706C2.19341 25.4787 1.9696 25.206 1.83744 24.8869C1.70527 24.5678 1.67069 24.2167 1.73807 23.878C1.80545 23.5393 1.97175 23.2282 2.21596 22.984C2.46016 22.7397 2.7713 22.5734 3.11002 22.5061C3.44875 22.4387 3.79984 22.4733 4.11891 22.6054C4.43798 22.7376 4.71069 22.9614 4.90256 23.2486C5.09443 23.5357 5.19685 23.8733 5.19685 24.2187C5.19685 24.6818 5.01288 25.1259 4.68541 25.4534C4.35794 25.7809 3.91379 25.9648 3.45068 25.9648Z" fill="#E21C21"/>
<path d="M23.5724 10.5821C22.881 10.5673 22.2018 10.7658 21.627 11.1505C21.0523 11.5353 20.61 12.0877 20.3602 12.7326C20.1105 13.3775 20.0653 14.0837 20.2309 14.7552C20.3965 15.4267 20.7648 16.0309 21.2858 16.4858L15.9226 21.8906C15.494 21.4325 14.9473 21.1017 14.3427 20.9343V17.2757C15.1492 17.0729 15.8538 16.5822 16.3237 15.8962C16.7937 15.2101 16.9967 14.3759 16.8945 13.5506C16.7924 12.7252 16.392 11.9657 15.7689 11.415C15.1458 10.8643 14.3428 10.5603 13.5112 10.5603C12.6796 10.5603 11.8766 10.8643 11.2535 11.415C10.6304 11.9657 10.2301 12.7252 10.1279 13.5506C10.0257 14.3759 10.2287 15.2101 10.6987 15.8962C11.1686 16.5822 11.8732 17.0729 12.6797 17.2757V20.9343C12.0226 21.0986 11.4293 21.4548 10.9755 21.9576C10.5217 22.4605 10.2279 23.0871 10.1317 23.7575C10.0355 24.428 10.1412 25.1119 10.4353 25.7221C10.7294 26.3322 11.1986 26.8409 11.783 27.1833C12.3674 27.5257 13.0406 27.6862 13.7166 27.6444C14.3927 27.6027 15.0409 27.3605 15.5788 26.9487C16.1166 26.537 16.5195 25.9744 16.7363 25.3327C16.953 24.6909 16.9737 23.9992 16.7957 23.3457L22.8657 17.3173L23.5724 17.4004C24.0489 17.4533 24.5312 17.4051 24.9878 17.2589C25.4444 17.1127 25.865 16.8719 26.2222 16.5521C26.5794 16.2324 26.8651 15.8408 27.0608 15.4032C27.2564 14.9655 27.3575 14.4915 27.3575 14.012C27.3575 13.5326 27.2564 13.0586 27.0608 12.6209C26.8651 12.1832 26.5794 11.7917 26.2222 11.472C25.865 11.1522 25.4444 10.9114 24.9878 10.7652C24.5312 10.619 24.0489 10.5708 23.5724 10.6236V10.5821ZM11.765 13.9912C11.765 13.6459 11.8675 13.3083 12.0593 13.0211C12.2512 12.734 12.5239 12.5102 12.843 12.378C13.162 12.2458 13.5131 12.2113 13.8519 12.2786C14.1906 12.346 14.5017 12.5123 14.7459 12.7565C14.9901 13.0007 15.1564 13.3119 15.2238 13.6506C15.2912 13.9893 15.2566 14.3404 15.1244 14.6595C14.9923 14.9785 14.7685 15.2513 14.4813 15.4431C14.1942 15.635 13.8566 15.7374 13.5112 15.7374C13.0481 15.7374 12.6039 15.5534 12.2765 15.226C11.949 14.8985 11.765 14.4544 11.765 13.9912ZM13.5112 25.9649C13.1658 25.9649 12.8282 25.8625 12.5411 25.6707C12.2539 25.4788 12.0301 25.2061 11.898 24.887C11.7658 24.5679 11.7312 24.2168 11.7986 23.8781C11.866 23.5394 12.0323 23.2283 12.2765 22.9841C12.5207 22.7398 12.8318 22.5735 13.1705 22.5062C13.5093 22.4388 13.8604 22.4734 14.1794 22.6055C14.4985 22.7377 14.7712 22.9615 14.9631 23.2487C15.155 23.5358 15.2574 23.8734 15.2574 24.2188C15.2574 24.4481 15.2122 24.6752 15.1244 24.887C15.0367 25.0989 14.9081 25.2914 14.7459 25.4535C14.5838 25.6156 14.3913 25.7443 14.1794 25.832C13.9676 25.9198 13.7405 25.9649 13.5112 25.9649ZM23.5724 15.7374C23.2271 15.7374 22.8895 15.635 22.6023 15.4431C22.3152 15.2513 22.0914 14.9785 21.9592 14.6595C21.827 14.3404 21.7924 13.9893 21.8598 13.6506C21.9272 13.3119 22.0935 13.0007 22.3377 12.7565C22.5819 12.5123 22.8931 12.346 23.2318 12.2786C23.5705 12.2113 23.9216 12.2458 24.2407 12.378C24.5597 12.5102 24.8324 12.734 25.0243 13.0211C25.2162 13.3083 25.3186 13.6459 25.3186 13.9912C25.3186 14.4544 25.1346 14.8985 24.8072 15.226C24.4797 15.5534 24.0355 15.7374 23.5724 15.7374Z" fill="#E21C21"/>
<path d="M23.5728 20.8511C22.8985 20.8511 22.2394 21.051 21.6787 21.4256C21.1181 21.8002 20.6811 22.3327 20.4231 22.9556C20.1651 23.5786 20.0975 24.264 20.2291 24.9253C20.3606 25.5867 20.6853 26.1941 21.1621 26.6709C21.6389 27.1477 22.2463 27.4724 22.9077 27.6039C23.569 27.7355 24.2544 27.668 24.8774 27.4099C25.5003 27.1519 26.0328 26.7149 26.4074 26.1543C26.782 25.5937 26.9819 24.9345 26.9819 24.2603C26.9819 23.3561 26.6227 22.4889 25.9834 21.8496C25.3441 21.2103 24.4769 20.8511 23.5728 20.8511ZM23.5728 25.9648C23.2274 25.9648 22.8898 25.8624 22.6026 25.6706C22.3155 25.4787 22.0917 25.206 21.9595 24.8869C21.8273 24.5678 21.7928 24.2167 21.8601 23.878C21.9275 23.5393 22.0938 23.2282 22.338 22.984C22.5822 22.7397 22.8934 22.5734 23.2321 22.5061C23.5708 22.4387 23.9219 22.4733 24.241 22.6054C24.5601 22.7376 24.8328 22.9614 25.0246 23.2486C25.2165 23.5357 25.3189 23.8733 25.3189 24.2187C25.3189 24.6818 25.1349 25.1259 24.8075 25.4534C24.48 25.7809 24.0359 25.9648 23.5728 25.9648Z" fill="#E21C21"/>
<path d="M6.81831 4.09623C6.82165 3.4497 6.64108 2.81555 6.29766 2.26777C5.95424 1.71998 5.46214 1.28114 4.87875 1.00244C4.29537 0.723742 3.64477 0.616678 3.00284 0.693737C2.36092 0.770797 1.75414 1.0288 1.25329 1.43766C0.752449 1.84651 0.378189 2.38935 0.174176 3.00285C-0.0298361 3.61635 -0.0551898 4.27522 0.101073 4.90259C0.257337 5.52995 0.588774 6.09995 1.05672 6.54609C1.52466 6.99222 2.10982 7.29609 2.74393 7.42225V10.9977C1.92844 11.1603 1.20048 11.6153 0.697032 12.2771C0.193585 12.9389 -0.0506308 13.7618 0.0103423 14.5911C0.0713154 15.4204 0.433273 16.1988 1.0281 16.7799C1.62293 17.3609 2.40961 17.7045 3.24009 17.7461C4.07058 17.7876 4.88762 17.5242 5.53744 17.0053C6.18726 16.4865 6.62505 15.7481 6.76845 14.929C6.91184 14.11 6.75093 13.2667 6.31601 12.558C5.88109 11.8493 5.20214 11.324 4.40694 11.0809V7.3391C5.10213 7.12632 5.71109 6.69688 6.14491 6.11347C6.57873 5.53006 6.81468 4.82324 6.81831 4.09623ZM1.70454 4.09623C1.70454 3.75087 1.80695 3.41326 1.99882 3.12611C2.1907 2.83895 2.46341 2.61514 2.78248 2.48298C3.10155 2.35082 3.45264 2.31624 3.79137 2.38361C4.13009 2.45099 4.44123 2.6173 4.68543 2.8615C4.92964 3.10571 5.09594 3.41684 5.16332 3.75557C5.23069 4.09429 5.19611 4.44538 5.06395 4.76445C4.93179 5.08352 4.70798 5.35624 4.42082 5.54811C4.13367 5.73998 3.79606 5.84239 3.45071 5.84239C2.9876 5.84239 2.54345 5.65842 2.21598 5.33095C1.88851 5.00348 1.70454 4.55934 1.70454 4.09623ZM5.15529 14.3238C5.15529 14.6691 5.05288 15.0067 4.86101 15.2939C4.66914 15.581 4.39643 15.8048 4.07736 15.937C3.75829 16.0692 3.40719 16.1037 3.06847 16.0364C2.72975 15.969 2.41861 15.8027 2.17441 15.5585C1.9302 15.3143 1.7639 15.0031 1.69652 14.6644C1.62914 14.3257 1.66372 13.9746 1.79589 13.6555C1.92805 13.3365 2.15186 13.0637 2.43902 12.8719C2.72617 12.68 3.06377 12.5776 3.40913 12.5776C3.87224 12.5776 4.31639 12.7616 4.64386 13.089C4.97133 13.4165 5.15529 13.8606 5.15529 14.3238Z" fill="#E21C21"/>
<path d="M40.9367 9.44019H35.1735C35.1735 10.6247 35.8983 11.4909 37.1889 11.4909C38.1965 11.4909 38.6915 11.208 39.2749 10.6247L40.6715 11.9859C39.7346 12.9229 38.833 13.4355 37.1712 13.4355C34.9967 13.4355 32.9106 12.4455 32.9106 8.71537C32.9106 5.71002 34.5371 4.01288 36.9237 4.01288C39.4871 4.01288 40.9367 5.8868 40.9367 8.41484V9.44019ZM38.6739 7.8668C38.6562 7.46019 38.6031 7.21269 38.4617 6.8768C38.2142 6.32877 37.7015 5.92216 36.9237 5.92216C36.1458 5.92216 35.6331 6.32877 35.3856 6.8768C35.2442 7.21269 35.1912 7.46019 35.1735 7.8668H38.6739ZM46.9651 13.3295H45.6569C43.7653 13.3295 42.9697 12.0036 42.9697 10.6954V0.742345H45.268V10.5539C45.268 11.102 45.4978 11.3848 46.0812 11.3848H46.9651V13.3295ZM51.1019 13.3295H48.8037V4.11895H51.1019V13.3295ZM51.1196 2.54556H48.7683V0.671631H51.1196V2.54556ZM57.802 13.3295H56.5469C54.6729 13.3295 53.8774 12.0036 53.8774 10.6954V6.1343H52.9051V4.38413H53.8774V1.66163H56.1756V4.38413H57.802V6.1343H56.1756V10.5539C56.1756 11.0843 56.4231 11.3848 56.9712 11.3848H57.802V13.3295ZM67.4015 9.44019H61.6383C61.6383 10.6247 62.3631 11.4909 63.6536 11.4909C64.6613 11.4909 65.1563 11.208 65.7397 10.6247L67.1363 11.9859C66.1994 12.9229 65.2977 13.4355 63.636 13.4355C61.4615 13.4355 59.3754 12.4455 59.3754 8.71537C59.3754 5.71002 61.0019 4.01288 63.3885 4.01288C65.9519 4.01288 67.4015 5.8868 67.4015 8.41484V9.44019ZM65.1386 7.8668C65.121 7.46019 65.0679 7.21269 64.9265 6.8768C64.679 6.32877 64.1663 5.92216 63.3885 5.92216C62.6106 5.92216 62.0979 6.32877 61.8504 6.8768C61.709 7.21269 61.656 7.46019 61.6383 7.8668H65.1386ZM80.5897 13.3295H78.3445V12.5339C77.7258 13.1527 77.1424 13.4179 76.0817 13.4179C75.0386 13.4179 74.2785 13.1527 73.7304 12.6047C73.2354 12.092 72.9702 11.3495 72.9702 10.5363C72.9702 9.06894 73.9779 7.8668 76.117 7.8668H78.2915V7.40716C78.2915 6.39948 77.7965 5.95752 76.5767 5.95752C75.6927 5.95752 75.2861 6.16966 74.8088 6.7177L73.3415 5.28573C74.2431 4.29573 75.127 4.01288 76.6651 4.01288C79.2461 4.01288 80.5897 5.10895 80.5897 7.26573V13.3295ZM78.2915 9.93519V9.44019H76.4706C75.6397 9.44019 75.1801 9.82912 75.1801 10.4832C75.1801 11.1197 75.6043 11.5439 76.5059 11.5439C77.1424 11.5439 77.549 11.4909 77.9556 11.102C78.2031 10.8722 78.2915 10.5009 78.2915 9.93519ZM85.3629 13.3295H83.0647V4.11895H85.3629V13.3295ZM85.3806 2.54556H83.0293V0.671631H85.3806V2.54556ZM40.5301 27.561H38.2849V26.7655C37.6662 27.3843 37.0828 27.6494 36.0221 27.6494C34.979 27.6494 34.2189 27.3843 33.6708 26.8362C33.1758 26.3235 32.9106 25.581 32.9106 24.7678C32.9106 23.3005 33.9183 22.0984 36.0574 22.0984H38.2319V21.6387C38.2319 20.631 37.7369 20.1891 36.5171 20.1891C35.6331 20.1891 35.2265 20.4012 34.7492 20.9493L33.2819 19.5173C34.1835 18.5273 35.0674 18.2444 36.6055 18.2444C39.1865 18.2444 40.5301 19.3405 40.5301 21.4973V27.561ZM38.2319 24.1668V23.6718H36.411C35.5801 23.6718 35.1205 24.0607 35.1205 24.7148C35.1205 25.3512 35.5447 25.7755 36.4464 25.7755C37.0828 25.7755 37.4894 25.7225 37.896 25.3335C38.1435 25.1037 38.2319 24.7325 38.2319 24.1668ZM50.5538 27.561H48.3087V26.7125C47.7076 27.3489 46.859 27.6671 46.0105 27.6671C45.0912 27.6671 44.3487 27.3666 43.836 26.8539C43.0935 26.1114 42.899 25.2451 42.899 24.2375V18.3505H45.1972V23.9193C45.1972 25.1744 45.9928 25.5987 46.7176 25.5987C47.4424 25.5987 48.2556 25.1744 48.2556 23.9193V18.3505H50.5538V27.561ZM57.2717 27.561H56.0165C54.1426 27.561 53.347 26.2351 53.347 24.9269V20.3659H52.3747V18.6157H53.347V15.8932H55.6453V18.6157H57.2717V20.3659H55.6453V24.7855C55.6453 25.3159 55.8928 25.6164 56.4408 25.6164H57.2717V27.561ZM66.712 22.9469C66.712 24.6264 66.4999 25.6694 65.669 26.5357C65.1033 27.1368 64.1663 27.6671 62.8051 27.6671C61.4438 27.6671 60.5245 27.1368 59.9588 26.5357C59.1279 25.6694 58.9158 24.6264 58.9158 22.9469C58.9158 21.2852 59.1279 20.2421 59.9588 19.3759C60.5245 18.7748 61.4438 18.2444 62.8051 18.2444C64.1663 18.2444 65.1033 18.7748 65.669 19.3759C66.4999 20.2421 66.712 21.2852 66.712 22.9469ZM64.4138 22.9469C64.4138 21.9923 64.3608 21.1968 63.8835 20.7194C63.6183 20.4543 63.2647 20.3128 62.8051 20.3128C62.3454 20.3128 62.0095 20.4543 61.7444 20.7194C61.267 21.1968 61.214 21.9923 61.214 22.9469C61.214 23.9016 61.267 24.7148 61.7444 25.1921C62.0095 25.4573 62.3454 25.5987 62.8051 25.5987C63.2647 25.5987 63.6183 25.4573 63.8835 25.1921C64.3608 24.7148 64.4138 23.9016 64.4138 22.9469ZM81.9156 27.561H79.6174V21.9923C79.6174 20.7371 78.8218 20.3128 78.097 20.3128C77.3899 20.3128 76.559 20.7371 76.559 21.9393V27.561H74.2608V21.9923C74.2608 20.7371 73.4652 20.3128 72.7404 20.3128C72.0156 20.3128 71.2024 20.7371 71.2024 21.9923V27.561H68.9042V18.3505H71.1493V19.1991C71.7504 18.5803 72.599 18.2444 73.4476 18.2444C74.4729 18.2444 75.3038 18.6157 75.8872 19.4112C76.6651 18.598 77.4959 18.2444 78.6451 18.2444C79.5643 18.2444 80.3952 18.545 80.9079 19.0577C81.6504 19.8002 81.9156 20.6664 81.9156 21.6741V27.561ZM91.3559 27.561H89.1108V26.7655C88.492 27.3843 87.9086 27.6494 86.8479 27.6494C85.8049 27.6494 85.0447 27.3843 84.4967 26.8362C84.0017 26.3235 83.7365 25.581 83.7365 24.7678C83.7365 23.3005 84.7442 22.0984 86.8833 22.0984H89.0577V21.6387C89.0577 20.631 88.5627 20.1891 87.3429 20.1891C86.459 20.1891 86.0524 20.4012 85.575 20.9493L84.1077 19.5173C85.0093 18.5273 85.8933 18.2444 87.4313 18.2444C90.0124 18.2444 91.3559 19.3405 91.3559 21.4973V27.561ZM89.0577 24.1668V23.6718H87.2368C86.4059 23.6718 85.9463 24.0607 85.9463 24.7148C85.9463 25.3512 86.3706 25.7755 87.2722 25.7755C87.9086 25.7755 88.3152 25.7225 88.7218 25.3335C88.9693 25.1037 89.0577 24.7325 89.0577 24.1668ZM97.9677 27.561H96.7125C94.8386 27.561 94.0431 26.2351 94.0431 24.9269V20.3659H93.0708V18.6157H94.0431V15.8932H96.3413V18.6157H97.9677V20.3659H96.3413V24.7855C96.3413 25.3159 96.5888 25.6164 97.1368 25.6164H97.9677V27.561ZM102.352 27.561H100.054V18.3505H102.352V27.561ZM102.37 16.7771H100.018V14.9032H102.37V16.7771ZM112.323 22.9469C112.323 24.6264 112.111 25.6694 111.28 26.5357C110.714 27.1368 109.777 27.6671 108.416 27.6671C107.054 27.6671 106.135 27.1368 105.569 26.5357C104.739 25.6694 104.526 24.6264 104.526 22.9469C104.526 21.2852 104.739 20.2421 105.569 19.3759C106.135 18.7748 107.054 18.2444 108.416 18.2444C109.777 18.2444 110.714 18.7748 111.28 19.3759C112.111 20.2421 112.323 21.2852 112.323 22.9469ZM110.024 22.9469C110.024 21.9923 109.971 21.1968 109.494 20.7194C109.229 20.4543 108.875 20.3128 108.416 20.3128C107.956 20.3128 107.62 20.4543 107.355 20.7194C106.878 21.1968 106.825 21.9923 106.825 22.9469C106.825 23.9016 106.878 24.7148 107.355 25.1921C107.62 25.4573 107.956 25.5987 108.416 25.5987C108.875 25.5987 109.229 25.4573 109.494 25.1921C109.971 24.7148 110.024 23.9016 110.024 22.9469ZM122.17 27.561H119.871V21.9923C119.871 20.7371 119.076 20.3128 118.351 20.3128C117.626 20.3128 116.813 20.7371 116.813 21.9923V27.561H114.515V18.3505H116.76V19.1991C117.361 18.5627 118.21 18.2444 119.058 18.2444C119.977 18.2444 120.72 18.545 121.233 19.0577C121.975 19.8002 122.17 20.6664 122.17 21.6741V27.561ZM131.575 24.6618C131.575 26.6948 129.842 27.6671 127.668 27.6671C126.218 27.6671 124.91 27.508 123.743 26.3412L125.246 24.8385C126.006 25.5987 126.996 25.7048 127.703 25.7048C128.499 25.7048 129.329 25.4396 129.329 24.7501C129.329 24.2905 129.082 23.9723 128.357 23.9016L126.907 23.7602C125.246 23.601 124.22 22.8762 124.22 21.1791C124.22 19.2698 125.9 18.2444 127.774 18.2444C129.206 18.2444 130.408 18.4919 131.292 19.3228L129.877 20.7548C129.347 20.2775 128.534 20.136 127.738 20.136C126.819 20.136 126.43 20.5603 126.43 21.02C126.43 21.3559 126.572 21.7448 127.385 21.8155L128.834 21.9569C130.655 22.1337 131.575 23.106 131.575 24.6618Z" fill="black"/>
</svg>
